<?xml version="1.0" standalone="no"?>
<!DOCTYPE svg PUBLIC "-//W3C//DTD SVG 20010904//EN"
 "http://www.w3.org/TR/2001/REC-SVG-20010904/DTD/svg10.dtd">
<svg version="1.0" xmlns="http://www.w3.org/2000/svg"
 width="1799.000000pt" height="1799.000000pt" viewBox="0 0 1799.000000 1799.000000"
 preserveAspectRatio="xMidYMid meet">
<metadata>
Created by potrace 1.11, written by Peter Selinger 2001-2013
</metadata>
<g transform="translate(0.000000,1799.000000) scale(0.100000,-0.100000)"
fill="#000000" stroke="none">
<path d="M8941 17960 c-6 -16 -15 -42 -21 -57 -94 -268 -385 -904 -562 -1228
-30 -55 -72 -131 -93 -170 -39 -72 -45 -83 -185 -320 -288 -487 -675 -1047
-1154 -1665 -121 -157 -506 -641 -516 -650 -4 -3 -60 -70 -125 -150 -142 -174
-294 -357 -470 -569 -71 -86 -146 -177 -165 -201 -19 -24 -58 -71 -86 -104
-110 -132 -477 -592 -626 -786 -262 -340 -566 -768 -744 -1050 -23 -36 -61
-96 -86 -135 -56 -88 -228 -382 -228 -390 0 -3 -11 -22 -24 -43 -43 -68 -241
-465 -309 -617 -244 -553 -390 -1020 -502 -1610 -3 -16 -8 -43 -10 -60 -3 -16
-7 -41 -10 -55 -6 -29 -41 -290 -50 -370 -25 -228 -30 -353 -30 -700 0 -301 6
-492 20 -635 2 -22 6 -71 9 -110 6 -66 21 -198 31 -275 2 -19 7 -55 10 -80 3
-25 10 -72 15 -105 6 -33 10 -64 10 -69 0 -17 -83 -71 1110 719 250 165 566
374 703 464 l247 163 -3 201 c-3 175 -1 203 13 216 17 17 46 37 755 526 242
167 461 318 487 337 25 18 203 141 394 273 192 132 402 277 469 323 66 46 157
109 203 139 l82 56 43 -17 c23 -10 102 -39 175 -66 l132 -50 118 79 c64 43
196 130 292 193 96 63 267 176 380 250 454 299 585 384 1110 726 212 138 390
255 395 259 6 5 46 31 90 58 44 27 82 52 85 55 3 4 12 9 20 13 8 3 85 52 170
108 280 184 724 463 935 587 134 79 237 132 272 138 42 8 330 8 393 0 318 -40
512 -122 688 -291 188 -179 318 -424 442 -834 17 -57 33 -111 36 -120 2 -9 13
-52 24 -96 25 -98 26 -98 40 -160 6 -27 13 -57 15 -65 2 -8 13 -49 23 -90 11
-42 23 -92 26 -113 3 -20 10 -56 15 -79 9 -40 45 -247 57 -328 3 -19 7 -42 9
-50 2 -8 7 -40 10 -70 3 -30 8 -62 10 -70 2 -8 7 -37 10 -65 3 -27 7 -57 10
-65 2 -8 6 -42 10 -75 3 -33 7 -71 10 -85 7 -39 30 -204 40 -285 4 -27 8 -57
10 -65 2 -8 7 -35 10 -60 3 -25 8 -58 11 -75 3 -16 7 -46 10 -65 4 -35 40
-236 49 -277 4 -18 -8 -31 -67 -72 -40 -28 -80 -55 -88 -61 -84 -59 -297 -203
-306 -207 -6 -2 -14 3 -17 11 -4 9 -30 48 -60 88 -45 62 -124 172 -175 245 -7
10 -53 74 -103 143 -49 69 -104 145 -121 170 -17 25 -63 89 -102 143 -39 54
-79 110 -88 125 -10 15 -24 36 -33 47 -21 30 -377 528 -595 835 -102 143 -217
305 -255 358 l-71 99 -72 -46 c-40 -25 -223 -143 -407 -261 -184 -118 -399
-256 -478 -306 -146 -94 -404 -260 -1035 -666 -200 -128 -374 -240 -387 -248
-35 -22 -161 -102 -400 -256 -115 -74 -217 -139 -225 -144 -11 -7 -6 -20 29
-72 63 -90 442 -635 521 -748 37 -52 181 -259 320 -460 139 -201 266 -383 283
-405 16 -22 90 -128 164 -235 173 -249 236 -340 290 -417 24 -34 43 -64 43
-66 0 -3 -44 -38 -97 -78 -54 -40 -102 -77 -108 -81 -13 -11 -248 -188 -250
-188 0 0 -19 24 -40 52 -66 87 -231 262 -310 328 -247 205 -491 345 -865 493
-91 36 -239 90 -329 119 l-163 53 -44 65 c-24 36 -72 106 -107 155 -35 50
-134 191 -221 315 -86 124 -161 226 -166 228 -5 2 -91 -53 -192 -121 -174
-118 -476 -324 -508 -347 -27 -19 -324 -221 -416 -283 l-91 -61 35 -56 c31
-48 128 -196 343 -525 48 -73 56 -92 45 -100 -8 -5 -22 -16 -33 -23 -10 -7
-81 -57 -157 -111 l-139 -98 -52 76 c-28 42 -127 189 -220 326 -92 138 -169
252 -171 253 -3 4 -244 -156 -1129 -749 -1068 -716 -1230 -824 -1240 -828 -5
-2 -12 -7 -15 -10 -3 -4 -44 -33 -92 -64 l-86 -57 38 -98 c45 -116 140 -343
148 -357 4 -5 7 -12 8 -15 8 -39 219 -453 318 -623 50 -87 98 -170 106 -184
59 -104 356 -536 432 -628 9 -11 56 -69 105 -130 109 -135 119 -147 163 -195
19 -20 59 -64 89 -96 142 -156 331 -342 485 -478 154 -135 166 -145 296 -246
615 -475 1269 -807 1985 -1006 106 -30 80 -24 280 -68 146 -32 207 -43 335
-61 24 -4 47 -8 50 -10 3 -1 39 -6 80 -10 41 -4 82 -8 90 -10 8 -2 51 -6 95
-10 44 -3 100 -8 125 -11 54 -5 687 -5 745 1 22 1 76 6 120 10 44 3 91 8 105
10 14 2 44 7 68 10 98 12 128 16 142 20 8 2 38 6 65 10 28 3 70 11 95 16 25 6
54 12 65 13 11 2 45 8 75 15 30 6 64 13 75 15 11 2 49 12 85 21 36 9 72 18 80
20 65 14 479 146 545 174 11 5 79 32 150 61 225 91 490 224 775 389 208 120
565 378 785 566 239 204 558 520 701 695 16 19 33 40 39 46 10 11 67 78 116
138 144 173 492 675 553 796 4 8 12 24 19 35 184 301 408 767 547 1140 53 143
146 416 160 470 5 17 22 80 40 140 32 111 104 397 113 451 3 16 13 61 21 99 8
39 17 84 20 100 3 17 8 40 10 51 2 12 7 39 10 60 4 22 11 64 16 94 5 30 12 69
14 85 7 41 35 251 41 300 8 77 18 170 20 205 1 19 5 73 9 120 4 47 9 121 11
165 7 101 7 520 1 600 -2 33 -7 98 -10 145 -12 161 -31 357 -47 473 -5 37 -11
89 -14 115 -3 26 -8 58 -11 72 -2 14 -11 66 -20 115 -23 140 -26 157 -54 285
-24 107 -28 126 -34 155 -28 139 -145 539 -221 755 -144 411 -319 794 -568
1250 -159 291 -484 793 -741 1145 -168 230 -522 688 -635 821 -14 17 -40 49
-57 70 -27 34 -82 101 -227 277 -18 22 -37 44 -42 50 -6 7 -42 50 -80 97 -39
47 -131 157 -205 246 -74 88 -152 180 -172 205 -20 24 -132 159 -248 299 -117
140 -222 266 -234 280 -11 14 -37 45 -56 70 -19 25 -39 50 -45 56 -5 6 -23 28
-40 48 -16 21 -63 80 -104 130 -40 50 -86 107 -101 126 -65 82 -187 237 -205
261 -11 14 -47 62 -80 105 -33 43 -62 81 -65 84 -7 6 -90 118 -110 146 -8 12
-60 83 -115 159 -55 75 -107 147 -115 160 -8 13 -37 54 -64 91 -52 75 -360
538 -392 591 -10 18 -62 104 -116 190 -94 154 -228 382 -228 389 0 2 -15 29
-34 61 -76 132 -290 552 -366 718 -18 39 -45 97 -60 130 -15 33 -49 110 -75
170 -45 106 -60 142 -91 213 -18 42 -48 43 -63 2z m-1484 -11277 c26 -20 50
-39 53 -42 3 -4 99 -85 213 -181 115 -95 213 -184 218 -197 30 -80 -30 -156
-116 -144 -18 3 -91 54 -140 98 -11 10 -85 72 -165 138 -80 66 -151 125 -158
132 -7 7 -21 18 -30 25 -68 50 -82 127 -31 177 44 45 92 43 156 -6z m-335
-241 c42 -33 116 -94 173 -142 23 -19 63 -54 91 -76 243 -205 229 -191 238
-239 14 -74 -68 -141 -137 -112 -35 15 -511 415 -526 442 -20 37 -20 72 0 104
35 57 105 68 161 23z m-357 -225 c59 -42 464 -388 484 -413 26 -33 27 -91 3
-120 -48 -60 -112 -55 -193 14 -30 26 -78 66 -105 88 -215 180 -322 271 -337
288 -42 47 -31 117 23 154 39 26 77 23 125 -11z"/>
</g>
</svg>
